<?xml version="1.0" standalone="no"?>
<!DOCTYPE svg PUBLIC "-//W3C//DTD SVG 20010904//EN"
 "http://www.w3.org/TR/2001/REC-SVG-20010904/DTD/svg10.dtd">
<svg version="1.0" xmlns="http://www.w3.org/2000/svg"
 width="1504.000000pt" height="1504.000000pt" viewBox="0 0 1504.000000 1504.000000"
 preserveAspectRatio="xMidYMid meet">
<metadata>
Created by potrace 1.14, written by Peter Selinger 2001-2017
</metadata>
<g transform="translate(0.000000,1504.000000) scale(0.100000,-0.100000)"
fill="#000000" stroke="none">
<path d="M88 10309 c-17 -9 -18 -44 -18 -494 0 -469 1 -485 19 -495 11 -5 76
-10 145 -10 100 0 128 3 140 16 14 14 16 72 16 489 0 417 -2 475 -16 489 -12
13 -40 16 -142 16 -70 0 -135 -5 -144 -11z"/>
<path d="M1885 10304 c-14 -15 -16 -56 -13 -393 3 -368 3 -377 26 -426 43 -94
103 -137 217 -155 90 -14 537 -14 606 1 75 16 121 41 163 91 65 76 69 100 74
504 3 326 2 362 -13 377 -24 24 -266 25 -289 1 -14 -13 -16 -57 -16 -330 0
-350 -3 -369 -62 -401 -27 -14 -58 -17 -163 -18 -113 0 -134 3 -165 20 -56 33
-59 53 -59 407 -1 303 -2 318 -20 328 -11 5 -76 10 -145 10 -102 0 -128 -3
-141 -16z"/>
<path d="M3158 10309 c-26 -14 -27 -199 -1 -220 13 -12 83 -13 385 -10 312 3
368 1 368 -11 0 -16 -6 -19 -335 -173 -361 -170 -405 -198 -446 -282 -28 -57
-24 -158 7 -200 27 -37 77 -70 128 -86 61 -18 927 -17 950 2 13 11 16 33 16
107 0 84 -2 94 -21 104 -14 8 -122 9 -375 4 -242 -5 -354 -4 -354 3 0 17 35
36 248 136 233 110 390 196 449 243 24 20 53 58 69 89 32 66 30 120 -8 192
-29 57 -82 87 -178 103 -87 13 -879 13 -902 -1z"/>
<path d="M4460 10301 c-13 -25 -13 -480 0 -645 15 -191 64 -271 197 -313 63
-20 469 -30 596 -14 151 18 218 68 259 191 20 60 22 90 26 412 3 244 0 352 -7
367 -11 20 -20 21 -150 21 -100 0 -141 -4 -149 -13 -7 -8 -12 -129 -14 -342
-2 -240 -6 -336 -15 -352 -21 -36 -76 -48 -220 -48 -118 0 -134 2 -160 21 -48
36 -52 63 -52 396 -1 168 -4 313 -7 322 -5 14 -28 16 -150 16 -131 0 -144 -2
-154 -19z"/>
<path d="M840 10300 c-63 -4 -121 -13 -145 -24 -90 -38 -138 -117 -138 -226
-1 -114 54 -187 188 -250 97 -46 568 -220 595 -220 31 0 33 -19 3 -31 -20 -8
-132 -9 -374 -4 -410 9 -379 18 -379 -113 0 -48 5 -94 10 -102 8 -13 68 -15
437 -15 383 0 435 2 494 18 122 34 179 106 179 227 0 80 -22 132 -78 182 -50
45 -46 44 -406 179 -281 106 -316 122 -316 140 0 5 162 9 365 9 440 0 409 -10
403 131 -2 66 -7 92 -18 99 -17 11 -653 11 -820 0z"/>
<path d="M6541 8958 c-36 -26 -1361 -1962 -1361 -1989 0 -9 8 -23 18 -32 17
-15 60 -17 413 -17 290 1 400 4 416 13 11 7 146 177 298 380 l277 367 121 0
120 0 -7 -359 c-7 -355 -7 -360 13 -380 20 -20 31 -21 305 -21 255 0 286 2
305 18 12 9 144 179 294 377 l272 360 113 3 c104 2 112 1 112 -16 0 -10 9
-106 19 -213 11 -107 25 -259 32 -339 11 -128 15 -147 35 -167 l23 -23 581 0
581 0 38 38 c21 20 244 268 495 550 l457 513 117 -3 117 -3 103 -278 c62 -168
99 -283 95 -291 -4 -7 -118 -111 -253 -230 -141 -125 -246 -225 -248 -237 -9
-51 -58 -49 1055 -49 701 0 1041 3 1054 10 11 6 154 127 318 270 165 142 309
263 320 269 38 21 -7 59 443 -371 l197 -188 490 0 c432 0 491 2 505 16 25 24
19 43 -23 83 -22 20 -256 240 -520 490 -356 337 -481 460 -481 477 0 17 119
126 505 461 293 254 507 447 511 461 15 53 26 52 -560 52 -496 0 -544 -1 -566
-17 -14 -10 -125 -100 -247 -200 -163 -135 -229 -183 -248 -183 -20 0 -66 37
-198 163 -95 89 -191 179 -215 200 l-42 37 -484 0 c-523 0 -517 1 -502 -52 4
-13 196 -202 427 -422 307 -292 419 -404 419 -421 0 -17 -87 -93 -376 -331
-206 -170 -384 -313 -395 -318 -14 -7 -24 -5 -34 5 -12 12 -122 332 -453 1318
-35 106 -73 202 -83 212 -18 18 -43 19 -476 19 -413 -1 -461 -3 -489 -18 -18
-10 -299 -335 -663 -767 -373 -443 -640 -751 -651 -753 -13 -2 -23 5 -29 20
-6 13 -26 199 -46 413 -19 215 -49 530 -65 700 -16 171 -30 323 -30 338 0 16
-10 38 -25 53 l-25 25 -329 -3 c-313 -3 -330 -4 -351 -23 -12 -11 -153 -189
-312 -395 -159 -206 -298 -381 -309 -389 -42 -30 -45 -9 -67 394 -20 366 -21
380 -42 397 -20 17 -54 18 -400 18 -375 0 -377 0 -409 -22z"/>
<path d="M87 8943 c-25 -24 0 -63 161 -246 93 -106 176 -204 185 -218 17 -25
13 -40 -208 -758 -124 -402 -225 -741 -225 -754 0 -13 5 -28 12 -35 9 -9 384
-12 1628 -12 1396 0 1624 2 1673 15 60 16 372 151 652 283 409 193 461 220
488 251 17 21 45 89 81 204 30 94 102 322 160 505 58 183 106 341 106 351 0
10 -8 28 -17 39 -12 13 -191 86 -488 199 l-470 178 -1866 3 c-1026 1 -1869 -1
-1872 -5z m3435 -525 c90 -46 124 -68 126 -83 1 -11 -37 -153 -85 -315 l-88
-295 -290 -150 -290 -150 -798 -3 c-720 -2 -798 -1 -803 13 -5 12 176 645 288
1008 l11 37 903 0 902 0 124 -62z"/>
<path d="M4975 8470 c-16 -25 -273 -874 -268 -886 3 -7 13 -16 22 -19 19 -6
287 110 684 294 340 158 339 157 335 189 -3 30 -35 50 -472 293 -234 131 -286
153 -301 129z"/>
<path d="M952 6608 c-11 -14 -942 -1875 -942 -1883 0 -3 3138 -5 6973 -5
l6972 0 443 943 c243 518 442 945 442 950 0 4 -3122 7 -6939 7 -5539 0 -6941
-3 -6949 -12z m2721 -372 c69 -34 110 -89 127 -172 7 -35 10 -166 8 -376 l-3
-323 -25 -49 c-33 -64 -85 -105 -160 -125 l-61 -17 76 -102 c41 -56 75 -105
75 -107 0 -3 -58 -5 -128 -5 l-128 0 -75 108 -74 107 -210 5 c-220 6 -242 10
-303 56 -81 62 -95 148 -90 537 5 327 9 352 75 419 34 35 87 59 153 71 14 3
174 4 355 4 l330 -2 58 -29z m1509 -377 l3 -411 28 -24 c28 -24 31 -24 232
-24 197 0 205 1 230 23 14 12 30 40 35 62 5 22 10 208 10 413 l0 372 131 0
130 0 -4 -442 c-2 -303 -7 -454 -15 -479 -20 -59 -66 -114 -119 -140 -48 -24
-49 -24 -398 -24 l-350 0 -54 31 c-42 23 -62 43 -85 85 l-31 54 -3 458 -3 457
130 0 130 0 3 -411z m2828 306 l0 -105 -322 -2 -323 -3 -3 -107 -3 -108 296 0
295 0 0 -100 0 -100 -295 0 -295 0 0 -125 0 -125 335 0 335 0 0 -105 0 -105
-465 0 -465 0 0 545 0 545 455 0 455 0 0 -105z m2042 77 c67 -33 98 -97 98
-204 l0 -78 -125 0 -125 0 0 30 c0 19 -9 40 -25 55 -24 25 -25 25 -230 25
-261 0 -265 -2 -265 -106 0 -96 -9 -93 328 -124 307 -29 354 -38 397 -72 55
-43 65 -85 65 -273 0 -218 -16 -259 -113 -300 -30 -13 -97 -15 -413 -15 -413
0 -436 3 -489 56 -39 39 -55 97 -55 198 l0 76 125 0 125 0 0 -36 c0 -36 15
-73 34 -86 6 -4 117 -8 246 -8 289 0 280 -4 280 108 0 42 -4 82 -8 88 -17 26
-63 34 -327 59 -296 27 -331 33 -383 65 -59 36 -72 82 -72 266 0 149 2 164 23
205 25 47 69 78 126 90 20 4 194 7 386 6 344 -2 351 -2 397 -25z m2178 -87 l0
-115 -190 0 -190 0 0 -430 0 -430 -130 0 -130 0 -2 428 -3 427 -192 3 -193 2
0 115 0 115 515 0 515 0 0 -115z"/>
<path d="M3020 6033 c-53 -27 -59 -57 -59 -303 -1 -233 6 -278 46 -310 24 -19
39 -20 245 -20 251 0 270 4 288 68 7 24 10 122 8 279 l-3 243 -28 27 -27 28
-218 3 c-192 2 -221 1 -252 -15z"/>
</g>
</svg>
