<?xml version="1.0" encoding="UTF-8" standalone="no"?>
<svg width="14px" height="16px" viewBox="0 0 14 16" version="1.1" xmlns="http://www.w3.org/2000/svg" xmlns:xlink="http://www.w3.org/1999/xlink">
    <title>Slice 1</title>
    <desc>Created with Sketch.</desc>
    <defs></defs>
    <g id="Page-1" stroke="none" stroke-width="1" fill="none" fill-rule="evenodd">
        <path d="M0,3.42857143 C-2.59052039e-16,2.16620629 1.04466892,1.14285714 2.33333333,1.14285714 L4.66666667,1.14285714 C4.66666667,0.511674572 5.18900113,0 5.83333333,0 L8.16666667,0 C8.81099887,0 9.33333333,0.511674572 9.33333333,1.14285714 L11.6666667,1.14285714 C12.9553311,1.14285714 14,2.16620629 14,3.42857143 L0,3.42857143 Z M1.16666667,4.57142857 L1.16666667,13.7142857 C1.16666667,14.9766509 2.21133558,16 3.5,16 L10.5,16 C11.7886644,16 12.8333333,14.9766509 12.8333333,13.7142857 L12.8333333,4.57142857 L1.16666667,4.57142857 Z M2.33333333,8 C2.33333333,7.36881743 2.85566779,6.85714286 3.5,6.85714286 C4.14433221,6.85714286 4.66666667,7.36881743 4.66666667,8 L4.66666667,12.5714286 C4.66666667,13.2026111 4.14433221,13.7142857 3.5,13.7142857 C2.85566779,13.7142857 2.33333333,13.2026111 2.33333333,12.5714286 L2.33333333,8 Z M5.83333333,8 C5.83333333,7.36881743 6.35566779,6.85714286 7,6.85714286 C7.64433221,6.85714286 8.16666667,7.36881743 8.16666667,8 L8.16666667,12.5714286 C8.16666667,13.2026111 7.64433221,13.7142857 7,13.7142857 C6.35566779,13.7142857 5.83333333,13.2026111 5.83333333,12.5714286 L5.83333333,8 Z M9.33333333,8 C9.33333333,7.36881743 9.85566779,6.85714286 10.5,6.85714286 C11.1443322,6.85714286 11.6666667,7.36881743 11.6666667,8 L11.6666667,12.5714286 C11.6666667,13.2026111 11.1443322,13.7142857 10.5,13.7142857 C9.85566779,13.7142857 9.33333333,13.2026111 9.33333333,12.5714286 L9.33333333,8 Z" id="Shape" fill="#000000"></path>
    </g>
</svg>