<svg width="30" height="30" viewBox="0 0 30 30" fill="none" xmlns="http://www.w3.org/2000/svg">
<path d="M6.25 6.25V25" stroke="url(#paint0_linear)" stroke-linecap="round"/>
<path d="M11.25 4.99999C9.07661 5.20558 7.08333 6.66666 6.25 7.49999V18.75C6.25 18.75 9.07661 16.4556 11.25 16.25C13.2538 16.0604 16.25 17.5 16.25 17.5C16.25 17.5 18.8574 18.9313 20.625 18.75C21.9325 18.6159 23.125 17.9167 23.75 17.5V6.24999C23.125 6.66666 21.5437 7.49999 20 7.49999C18.4563 7.49999 16.25 6.24999 16.25 6.24999C16.25 6.24999 13.2538 4.81044 11.25 4.99999Z" fill="url(#paint1_linear)" stroke="url(#paint2_linear)"/>
<defs>
<linearGradient id="paint0_linear" x1="5" y1="6.25" x2="9.55729" y2="6.92552" gradientUnits="userSpaceOnUse">
<stop stop-color="#C5C5C5"/>
<stop offset="0.291852" stop-color="#DBDBDB"/>
<stop offset="0.54359" stop-color="white"/>
<stop offset="0.54369" stop-color="#E2E2E2"/>
<stop offset="0.787874" stop-color="#E1E1E1"/>
<stop offset="1" stop-color="#BFBFBF"/>
</linearGradient>
<linearGradient id="paint1_linear" x1="6.25" y1="4.98279" x2="17.1451" y2="20.3613" gradientUnits="userSpaceOnUse">
<stop stop-color="#C5C5C5"/>
<stop offset="0.291852" stop-color="#DBDBDB"/>
<stop offset="0.54359" stop-color="white"/>
<stop offset="0.54369" stop-color="#E2E2E2"/>
<stop offset="0.787874" stop-color="#E1E1E1"/>
<stop offset="1" stop-color="#BFBFBF"/>
</linearGradient>
<linearGradient id="paint2_linear" x1="6.25" y1="4.98279" x2="17.1451" y2="20.3613" gradientUnits="userSpaceOnUse">
<stop stop-color="#C5C5C5"/>
<stop offset="0.291852" stop-color="#DBDBDB"/>
<stop offset="0.54359" stop-color="white"/>
<stop offset="0.54369" stop-color="#E2E2E2"/>
<stop offset="0.787874" stop-color="#E1E1E1"/>
<stop offset="1" stop-color="#BFBFBF"/>
</linearGradient>
</defs>
</svg>
