<svg width="94" height="35" viewBox="0 0 94 35" fill="none" xmlns="http://www.w3.org/2000/svg">
<g clip-path="url(#clip0)">
<path d="M86.5722 21.1972H92.4784C92.6821 21.1972 92.784 20.9468 92.6316 20.7966L86.2667 14.7886C86.1648 14.6885 86.1648 14.4882 86.2667 14.3881L92.5297 8.93087C92.6821 8.78067 92.5803 8.53036 92.3765 8.53036H85.9105C85.7573 8.53036 85.6049 8.58038 85.503 8.68056L82.7027 10.9836C82.5496 11.0837 82.3971 11.0837 82.244 10.9836L79.7999 8.68056C79.698 8.58038 79.5456 8.53036 79.4437 8.53036H73.69C73.4862 8.53036 73.3844 8.78067 73.5375 8.93087L78.7306 13.8874C78.8325 13.9876 78.8325 14.1878 78.7306 14.288L74.0462 18.1431C73.8937 18.2933 73.6394 18.1932 73.5881 17.9929L70.4822 8.78067C70.4316 8.58038 70.2785 8.48027 70.075 8.48027H64.6269C64.4741 8.48027 64.3213 8.58038 64.1686 8.68056L56.2764 18.043C56.1237 18.1932 55.92 18.093 55.8691 17.8928L55.0035 8.73058C55.0035 8.58038 54.8507 8.43018 54.698 8.43018H50.8283C50.6755 8.43018 50.5227 8.53036 50.4209 8.63047L46.704 13.4368C46.5512 13.587 46.2967 13.537 46.2967 13.2866L46.0421 8.73058C46.0421 8.58038 45.8893 8.43018 45.7366 8.43018H41.154C41.0013 8.43018 40.8485 8.53036 40.7467 8.63047L32.4472 20.7966C32.3454 20.9468 32.4472 21.1972 32.6508 21.1972H37.488C37.5898 21.1972 37.6917 21.1471 37.7935 21.047L41.154 16.591C41.205 16.4909 41.3577 16.4408 41.4596 16.4408H42.6306C42.7325 16.4408 42.7834 16.4909 42.7834 16.591L42.7325 20.8968C42.7325 21.047 42.8852 21.1972 43.0379 21.1972H46.3985C46.5003 21.1972 46.6021 21.1471 46.704 21.047L50.0646 16.591C50.1154 16.4909 50.2682 16.4408 50.37 16.4408H51.4393C51.5411 16.4408 51.5921 16.4909 51.5921 16.591L51.9994 20.8968C51.9994 21.047 52.1521 21.1972 52.3048 21.1972H59.3823C59.4842 21.1972 59.6369 21.1471 59.6879 21.047L65.5433 14.4882C65.6452 14.3881 65.747 14.338 65.8488 14.338H67.02C67.1217 14.338 67.1727 14.3881 67.2236 14.4882L68.4456 17.7926C68.4965 17.8928 68.4456 17.9929 68.3947 18.043L65.3396 20.7466C65.1869 20.8968 65.2888 21.1471 65.4924 21.1471H78.1707C78.3239 21.1471 78.4763 21.097 78.5782 20.9969L82.3458 17.7426C82.499 17.6424 82.6514 17.6424 82.8046 17.7426L86.2154 20.9969C86.2667 21.1471 86.4191 21.1972 86.5722 21.1972Z" fill="#1B1C22"/>
<path d="M31.0739 11.6835L29.4446 16.9405C29.3936 17.0907 29.5464 17.2409 29.6992 17.1908C31.3794 16.4899 33.9762 15.2882 35.7583 14.4371C35.962 14.337 35.962 14.0866 35.7583 13.9865C34.6381 13.3357 32.7032 12.2342 31.4813 11.5833C31.2776 11.4832 31.1249 11.5333 31.0739 11.6835Z" fill="#1B1C22"/>
<path d="M0.216914 21.1983H20.2274C20.4819 21.1983 20.7365 21.1482 20.9911 21.0481C23.0278 20.197 25.6755 18.9453 27.5085 18.0441C27.7631 17.9439 27.9159 17.6936 28.0177 17.4433L29.9525 11.3352C30.0034 11.1349 29.9016 10.8846 29.698 10.8345L24.0971 8.73174C23.8425 8.63156 23.5879 8.58154 23.2824 8.58154H0.726083C0.522416 8.58154 0.420582 8.83185 0.573334 8.98205L2.76277 11.4854C2.81369 11.5355 2.8646 11.6857 2.81369 11.7858L0.013245 20.8979C-0.0376721 21.0481 0.0641623 21.1983 0.216914 21.1983ZM17.7324 18.1442H8.15997C8.05818 18.1442 8.00724 18.0441 8.00724 17.9439L9.89114 11.5855C9.94208 11.4854 9.99301 11.4353 10.0948 11.4353H20.8384C21.042 11.4353 21.2966 11.4854 21.5003 11.5855L22.7732 12.2364C22.8241 12.2865 22.8751 12.3866 22.8751 12.4367L21.8058 16.0414C21.7549 16.1916 21.704 16.2917 21.5512 16.3418L18.3943 17.9439C18.1907 18.0941 17.9361 18.1442 17.7324 18.1442Z" fill="#1B1C22"/>
<path d="M5.9715 23.1836H92.7338L87.1136 35.1266H0L5.9715 23.1836Z" fill="#E30613"/>
<path d="M18.7694 25.291C17.4711 25.291 16.8613 25.891 16.8613 27.1991V30.2677C16.8613 31.5758 17.4711 32.1758 18.7694 32.1758H20.6381L21.5823 33.5528H23.3035L22.2806 32.1561C23.3429 32.0479 23.8445 31.4578 23.8445 30.2677V27.1991C23.8445 25.891 23.2347 25.291 21.9364 25.291H18.7694ZM18.553 27.5335C18.553 26.9434 18.7694 26.727 19.3595 26.727H21.3463C21.9462 26.727 22.1528 26.9434 22.1528 27.5335V29.9333C22.1528 30.5235 21.9462 30.7398 21.3463 30.7398H19.3595C18.7694 30.7398 18.553 30.5235 18.553 29.9333V27.5335Z" fill="white"/>
<path d="M35.4769 32.1758C36.7752 32.1758 37.385 31.5758 37.385 30.2677V25.291H35.6933V29.9333C35.6933 30.5235 35.4769 30.7398 34.8868 30.7398H33.1951C32.5951 30.7398 32.3886 30.5235 32.3886 29.9333V25.291H30.6969V30.2677C30.6969 31.5758 31.3067 32.1758 32.605 32.1758H35.4769Z" fill="white"/>
<path d="M46.0136 29.2744H49.7117V27.9958H46.0136V26.6876H50.1051V25.291H44.3219V32.1758H50.2034V30.7792H46.0136V29.2744Z" fill="white"/>
<path d="M56.8388 30.7005C56.8388 31.7234 57.3011 32.1758 58.3141 32.1758H62.1499C63.163 32.1758 63.6252 31.7234 63.6252 30.7005V29.5793C63.6252 28.5859 63.1826 28.1925 62.1499 28.1039L59.1796 27.8286C58.7567 27.7892 58.6288 27.681 58.6288 27.2778V27.1499C58.6288 26.7467 58.7764 26.5991 59.1796 26.5991H61.3041C61.7073 26.5991 61.8549 26.7467 61.8549 27.1499V27.2974H63.4875V26.7663C63.4875 25.7434 63.0253 25.291 62.0122 25.291H58.4125C57.3994 25.291 56.9372 25.7434 56.9372 26.7663V27.7105C56.9372 28.7039 57.3797 29.0973 58.4125 29.1858L61.3828 29.4612C61.8057 29.5006 61.9335 29.6088 61.9335 30.012V30.3169C61.9335 30.7202 61.786 30.8677 61.3828 30.8677H59.0223C58.619 30.8677 58.4715 30.7202 58.4715 30.3169V30.0514H56.8388V30.7005Z" fill="white"/>
<path d="M69.9937 25.291V26.786H72.3739V32.1758H74.0656V26.786H76.4458V25.291H69.9937Z" fill="white"/>
<path d="M2.19504 0.0498047C2.09317 0.0498047 0.922126 0.0498047 0.718463 0.0498047C0.514801 0.0498047 0.463867 0.149938 0.463867 0.350204V6.00771C0.463867 6.25805 0.616595 6.25805 0.820258 6.25805C0.922125 6.25805 2.04231 6.25805 2.1441 6.25805C2.3987 6.25805 2.3987 6.10785 2.3987 5.85752C2.3987 5.45699 2.3987 0.750737 2.3987 0.350204C2.3987 0.149938 2.34777 0.0998715 2.19504 0.0498047Z" fill="#1B1C22"/>
<path d="M9.88369 3.40302C9.32356 3.10262 6.47221 2.10129 5.86122 1.85096C5.70849 1.80089 5.65755 1.70076 5.65755 1.60063C5.70849 1.5005 5.86122 1.5005 5.91215 1.5005C5.96301 1.5005 6.57407 1.5005 10.1383 1.5005C10.3419 1.5005 10.4437 1.45043 10.4437 1.25016C10.4437 1.15003 10.4437 0.499165 10.4437 0.449099C10.4437 0.198766 10.3928 0.0986328 10.1383 0.0986328C9.83275 0.0986328 6.31948 0.0986328 5.19929 0.148699C3.97731 0.198766 3.56992 0.799564 3.51905 1.45043C3.41719 2.05122 3.67178 2.65202 4.23184 3.00249C4.74103 3.35296 6.57407 3.95375 8.30525 4.60462C8.61078 4.60462 8.61078 4.70475 8.55984 4.80489C8.50891 4.85495 8.40704 4.85495 8.25431 4.90502C7.84698 4.90502 4.23184 4.85495 4.02818 4.85495C3.77358 4.85495 3.72272 4.95508 3.72272 5.25548C3.72272 5.30555 3.72272 5.85628 3.72272 5.90635C3.72272 6.15668 3.77358 6.25681 4.02818 6.25681C5.55569 6.25681 8.20338 6.30688 8.71257 6.25681C9.57816 6.20675 10.0874 6.05655 10.4437 5.60595C10.8002 5.05522 10.8511 3.95375 9.88369 3.40302Z" fill="#1B1C22"/>
<path d="M22.1042 4.50552C22.817 4.15505 24.8537 3.25385 25.8721 2.60299C26.4831 2.20246 26.8394 1.55159 26.534 0.850657C26.3303 0.299928 25.8721 0.0996617 24.9046 0.0495955C24.1918 -0.000470961 20.0675 0.0495955 19.9656 0.0495955C19.6602 0.0495955 19.6602 0.149728 19.6602 0.450128C19.6602 0.500194 19.6602 1.15106 19.6602 1.25119C19.6602 1.45146 19.8129 1.50152 19.9656 1.50152C20.0675 1.50152 24.039 1.45146 24.2936 1.45146C24.4464 1.45146 24.4973 1.50152 24.4973 1.60165C24.4973 1.65172 24.4463 1.70179 24.3445 1.75185C23.1225 2.35266 21.0858 3.25385 20.4748 3.60432C19.6092 4.05491 19.4056 4.60565 19.4565 5.10631C19.5074 5.70711 19.8638 6.20777 21.0858 6.25784C22.206 6.3079 25.3119 6.25784 26.1266 6.20777C26.3812 6.20777 26.4321 6.10764 26.4321 5.90738C26.4321 5.80724 26.4321 5.35664 26.4321 5.30657C26.4321 4.95611 26.3812 4.85598 26.0757 4.85598C25.8211 4.85598 22.7661 4.90604 21.8496 4.90604C21.6968 4.90604 21.6459 4.80591 21.6968 4.75585C21.8496 4.65571 21.9514 4.60565 22.1042 4.50552Z" fill="#1B1C22"/>
<path d="M18.2332 0.0493164C18.0295 0.0493164 16.9603 0.0493164 16.8075 0.0493164C16.6548 0.0493164 16.5529 0.0993832 16.5529 0.349715C16.5529 0.549981 16.5529 3.15344 16.5529 3.6541C16.5529 4.30497 16.4511 4.75556 15.6874 4.80563C15.2291 4.8557 14.9236 4.8557 14.5162 4.80563C13.8035 4.75556 13.6507 4.45517 13.6507 3.55397C13.6507 3.00324 13.6507 0.650114 13.6507 0.399782C13.6507 0.14945 13.6507 0.0493164 13.3452 0.0493164C13.1415 0.0493164 12.1231 0.0493164 12.0213 0.0493164C11.8685 0.0493164 11.7158 0.0993832 11.7158 0.349715C11.7158 0.499915 11.7158 2.45251 11.7158 4.1047C11.7158 6.2075 13.0906 6.15743 13.7525 6.20749C14.1598 6.25756 15.8401 6.25756 16.6039 6.20749C17.9787 6.10736 18.386 5.35637 18.4369 4.2549C18.4369 3.55397 18.4878 1.00058 18.4878 0.399782C18.4369 0.199516 18.4369 0.0493164 18.2332 0.0493164Z" fill="#1B1C22"/>
<path d="M34.5785 0.350465C34.5785 0.150199 34.5275 0.0500664 34.3239 0C34.1202 0 33.0509 0 32.9491 0C32.7454 0 32.6436 0.100133 32.6436 0.300399C32.6436 0.500664 32.6436 3.30439 32.6436 3.80505C32.6436 4.55605 32.389 4.65618 32.0835 4.70625C31.7271 4.80638 30.6578 4.75631 30.5051 4.75631C30.0977 4.70625 29.7923 4.50598 29.7923 3.80505C29.7923 3.10412 29.7923 0.550731 29.7923 0.300399C29.7923 0.100133 29.6904 0 29.5377 0C29.3849 0 28.3665 0 28.1629 0C27.9083 0 27.8574 0.150199 27.8574 0.350465C27.8574 0.801066 27.8574 3.85512 27.9083 4.35579C28.0102 5.55738 28.5702 6.05804 29.5377 6.15817C30.4542 6.25831 32.5927 6.25831 33.2546 6.10811C34.3239 5.85778 34.5275 4.95658 34.5785 3.90518C34.5785 3.30439 34.5785 0.650864 34.5785 0.350465Z" fill="#1B1C22"/>
</g>
<defs>
<clipPath id="clip0">
<rect width="93.0851" height="35" fill="white"/>
</clipPath>
</defs>
</svg>
