<svg width="129" height="49" viewBox="0 0 129 49" fill="none" xmlns="http://www.w3.org/2000/svg">
<g clip-path="url(#clip0)">
<path d="M119.651 29.8041H127.776C128.057 29.8041 128.197 29.4597 127.987 29.253L119.231 20.9877C119.09 20.85 119.09 20.5745 119.231 20.4367L127.847 12.9291C128.057 12.7224 127.916 12.3781 127.636 12.3781H118.741C118.53 12.3781 118.32 12.4469 118.18 12.5847L114.328 15.753C114.117 15.8908 113.907 15.8908 113.697 15.753L110.334 12.5847C110.194 12.4469 109.984 12.3781 109.844 12.3781H101.929C101.648 12.3781 101.508 12.7224 101.719 12.9291L108.863 19.7479C109.003 19.8857 109.003 20.1612 108.863 20.299L102.419 25.6025C102.209 25.8091 101.859 25.6714 101.788 25.3959L97.5156 12.7224C97.446 12.4469 97.2353 12.3091 96.9553 12.3091H89.4602C89.25 12.3091 89.0399 12.4469 88.8297 12.5847L77.9722 25.4648C77.7621 25.6714 77.4819 25.5337 77.4118 25.2582L76.221 12.6535C76.221 12.4469 76.0109 12.2402 75.8008 12.2402H70.4771C70.267 12.2402 70.0568 12.3781 69.9167 12.5158L64.8032 19.128C64.593 19.3346 64.2429 19.2658 64.2429 18.9214L63.8926 12.6535C63.8926 12.4469 63.6824 12.2402 63.4723 12.2402H57.168C56.9579 12.2402 56.7476 12.3781 56.6076 12.5158L45.1897 29.253C45.0497 29.4597 45.1897 29.8041 45.4699 29.8041H52.1245C52.2646 29.8041 52.4047 29.7352 52.5448 29.5975L57.168 23.4673C57.238 23.3296 57.4482 23.2607 57.5883 23.2607H59.1993C59.3395 23.2607 59.4095 23.3296 59.4095 23.4673L59.3395 29.3909C59.3395 29.5975 59.5496 29.8041 59.7597 29.8041H64.3829C64.523 29.8041 64.6631 29.7352 64.8032 29.5975L69.4264 23.4673C69.4964 23.3296 69.7066 23.2607 69.8467 23.2607H71.3176C71.4578 23.2607 71.5279 23.3296 71.5279 23.4673L72.0882 29.3909C72.0882 29.5975 72.2983 29.8041 72.5085 29.8041H82.2452C82.3853 29.8041 82.5954 29.7352 82.6655 29.5975L90.721 20.5745C90.8611 20.4367 91.0012 20.3678 91.1413 20.3678H92.7524C92.8925 20.3678 92.9625 20.4367 93.0326 20.5745L94.7137 25.1204C94.7838 25.2582 94.7137 25.3959 94.6437 25.4648L90.4408 29.1842C90.2307 29.3909 90.3708 29.7352 90.651 29.7352H108.093C108.304 29.7352 108.513 29.6663 108.653 29.5286L113.837 25.0515C114.047 24.9138 114.257 24.9138 114.468 25.0515L119.16 29.5286C119.231 29.7352 119.44 29.8041 119.651 29.8041Z" fill="white"/>
<path d="M43.3012 16.7153L41.0596 23.9475C40.9896 24.1541 41.1998 24.3607 41.4099 24.2918C43.7214 23.3275 47.294 21.6745 49.7457 20.5036C50.0259 20.3658 50.0259 20.0214 49.7457 19.8837C48.2046 18.9883 45.5427 17.4729 43.8616 16.5775C43.5814 16.4398 43.3713 16.5087 43.3012 16.7153Z" fill="white"/>
<path d="M0.850172 29.8044H28.3791C28.7293 29.8044 29.0795 29.7356 29.4298 29.5978C32.2317 28.4269 35.8742 26.7049 38.3959 25.4652C38.7462 25.3274 38.9564 24.983 39.0964 24.6386L41.7582 16.2355C41.8283 15.96 41.6882 15.6156 41.4081 15.5467L33.7027 12.6539C33.3525 12.5161 33.0022 12.4473 32.582 12.4473H1.55065C1.27046 12.4473 1.13036 12.7916 1.34051 12.9983L4.35258 16.4421C4.42263 16.5111 4.49267 16.7177 4.42263 16.8554L0.569979 29.3912C0.499931 29.5978 0.640028 29.8044 0.850172 29.8044ZM24.9467 25.6029H11.7777C11.6376 25.6029 11.5675 25.4652 11.5675 25.3274L14.1593 16.5799C14.2293 16.4421 14.2994 16.3732 14.4395 16.3732H29.2197C29.4999 16.3732 29.8501 16.4421 30.1303 16.5799L31.8815 17.4753C31.9515 17.5442 32.0216 17.682 32.0216 17.7509L30.5505 22.71C30.4806 22.9167 30.4105 23.0544 30.2004 23.1233L25.8574 25.3274C25.5772 25.534 25.2269 25.6029 24.9467 25.6029Z" fill="white"/>
<path d="M8.76691 32.5361H128.128L120.396 48.9664H0.551758L8.76691 32.5361Z" fill="#E30613"/>
<path d="M26.373 35.4355C24.587 35.4355 23.748 36.2609 23.748 38.0605V42.2821C23.748 44.0817 24.587 44.9071 26.373 44.9071H28.9439L30.2428 46.8014H32.6107L31.2035 44.8801C32.6649 44.7312 33.3549 43.9194 33.3549 42.2821V38.0605C33.3549 36.2609 32.516 35.4355 30.73 35.4355H26.373ZM26.0754 38.5206C26.0754 37.7087 26.373 37.411 27.1849 37.411H29.9181C30.7435 37.411 31.0276 37.7087 31.0276 38.5206V41.8221C31.0276 42.634 30.7435 42.9316 29.9181 42.9316H27.1849C26.373 42.9316 26.0754 42.634 26.0754 41.8221V38.5206Z" fill="white"/>
<path d="M49.358 44.9071C51.1441 44.9071 51.983 44.0817 51.983 42.2821V35.4355H49.6557V41.8221C49.6557 42.634 49.358 42.9316 48.5462 42.9316H46.2189C45.3935 42.9316 45.1093 42.634 45.1093 41.8221V35.4355H42.782V42.2821C42.782 44.0817 43.6209 44.9071 45.407 44.9071H49.358Z" fill="white"/>
<path d="M63.8535 40.9155H68.9411V39.1565H63.8535V37.3569H69.4824V35.4355H61.5262V44.9071H69.6177V42.9858H63.8535V40.9155Z" fill="white"/>
<path d="M78.7461 42.8775C78.7461 44.2847 79.3821 44.9071 80.7758 44.9071H86.0528C87.4465 44.9071 88.0824 44.2847 88.0824 42.8775V41.335C88.0824 39.9684 87.4735 39.4271 86.0528 39.3054L81.9665 38.9265C81.3847 38.8724 81.2087 38.7235 81.2087 38.1688V37.9929C81.2087 37.4381 81.4117 37.2351 81.9665 37.2351H84.8891C85.4439 37.2351 85.6469 37.4381 85.6469 37.9929V38.1958H87.893V37.4652C87.893 36.058 87.257 35.4355 85.8634 35.4355H80.9111C79.5174 35.4355 78.8814 36.058 78.8814 37.4652V38.7641C78.8814 40.1307 79.4903 40.672 80.9111 40.7938L84.9974 41.1726C85.5792 41.2267 85.7551 41.3756 85.7551 41.9303V42.3498C85.7551 42.9046 85.5521 43.1075 84.9974 43.1075H81.75C81.1952 43.1075 80.9923 42.9046 80.9923 42.3498V41.9845H78.7461V42.8775Z" fill="white"/>
<path d="M96.8437 35.4355V37.4922H100.118V44.9071H102.446V37.4922H105.72V35.4355H96.8437Z" fill="white"/>
<path d="M3.57205 0.709961C3.43191 0.709961 1.82087 0.709961 1.54068 0.709961C1.2605 0.709961 1.19043 0.847717 1.19043 1.12323V8.90642C1.19043 9.25081 1.40054 9.25081 1.68073 9.25081C1.82087 9.25081 3.36193 9.25081 3.50197 9.25081C3.85223 9.25081 3.85223 9.04418 3.85223 8.69979C3.85223 8.14877 3.85223 1.67425 3.85223 1.12323C3.85223 0.847717 3.78216 0.778839 3.57205 0.709961Z" fill="white"/>
<path d="M14.1485 5.32328C13.378 4.91001 9.45528 3.53246 8.61472 3.18807C8.40461 3.11919 8.33454 2.98143 8.33454 2.84368C8.40461 2.70593 8.61472 2.70593 8.68479 2.70593C8.75477 2.70593 9.59542 2.70593 14.4988 2.70593C14.779 2.70593 14.919 2.63705 14.919 2.36153C14.919 2.22378 14.919 1.32837 14.919 1.25949C14.919 0.915099 14.849 0.777344 14.4988 0.777344C14.0785 0.777344 9.24517 0.777344 7.7041 0.846222C6.02299 0.915099 5.46252 1.74163 5.39255 2.63705C5.25241 3.46358 5.60266 4.29011 6.37315 4.77226C7.07366 5.2544 9.59542 6.08093 11.977 6.97635C12.3974 6.97635 12.3974 7.1141 12.3273 7.25186C12.2572 7.32074 12.1171 7.32074 11.907 7.38962C11.3466 7.38962 6.37315 7.32074 6.09296 7.32074C5.74271 7.32074 5.67274 7.45849 5.67274 7.87176C5.67274 7.94064 5.67274 8.69829 5.67274 8.76717C5.67274 9.11156 5.74271 9.24932 6.09296 9.24932C8.1944 9.24932 11.8369 9.3182 12.5374 9.24932C13.7282 9.18044 14.4287 8.97381 14.919 8.3539C15.4094 7.59625 15.4794 6.08093 14.1485 5.32328Z" fill="white"/>
<path d="M30.9611 6.84043C31.9417 6.35828 34.7436 5.11848 36.1447 4.22307C36.9852 3.67205 37.4755 2.77664 37.0553 1.81234C36.775 1.05469 36.1447 0.779177 34.8137 0.7103C33.833 0.641422 28.1592 0.7103 28.019 0.7103C27.5988 0.7103 27.5988 0.848055 27.5988 1.26132C27.5988 1.3302 27.5988 2.22561 27.5988 2.36337C27.5988 2.63888 27.8089 2.70775 28.019 2.70775C28.1592 2.70775 33.6229 2.63888 33.9732 2.63888C34.1833 2.63888 34.2533 2.70775 34.2533 2.84551C34.2533 2.91439 34.1833 2.98327 34.0431 3.05214C32.362 3.87868 29.5601 5.11848 28.7195 5.60063C27.5287 6.22052 27.2485 6.97818 27.3186 7.66696C27.3886 8.49349 27.879 9.18227 29.5601 9.25115C31.1011 9.32002 35.3741 9.25115 36.4948 9.18227C36.8451 9.18227 36.9152 9.04452 36.9152 8.76901C36.9152 8.63125 36.9152 8.01135 36.9152 7.94247C36.9152 7.46033 36.8451 7.32257 36.4249 7.32257C36.0746 7.32257 31.8717 7.39144 30.6108 7.39144C30.4006 7.39144 30.3307 7.25369 30.4006 7.18482C30.6108 7.04706 30.7509 6.97818 30.9611 6.84043Z" fill="white"/>
<path d="M25.636 0.709961C25.3558 0.709961 23.8849 0.709961 23.6747 0.709961C23.4646 0.709961 23.3245 0.778839 23.3245 1.12323C23.3245 1.39874 23.3245 4.98039 23.3245 5.66916C23.3245 6.56458 23.1844 7.18447 22.1337 7.25336C21.5032 7.32223 21.0829 7.32223 20.5225 7.25336C19.5419 7.18447 19.3317 6.77121 19.3317 5.53141C19.3317 4.77375 19.3317 1.53649 19.3317 1.19211C19.3317 0.847717 19.3317 0.709961 18.9115 0.709961C18.6313 0.709961 17.2303 0.709961 17.0902 0.709961C16.88 0.709961 16.6699 0.778839 16.6699 1.12323C16.6699 1.32986 16.6699 4.01609 16.6699 6.28906C16.6699 9.18193 18.5612 9.11305 19.4719 9.18193C20.0322 9.25081 22.3438 9.25081 23.3946 9.18193C25.2859 9.04418 25.8462 8.01101 25.9163 6.4957C25.9163 5.53141 25.9863 2.01864 25.9863 1.19211C25.9163 0.916595 25.9163 0.709961 25.636 0.709961Z" fill="white"/>
<path d="M48.1223 1.12375C48.1223 0.848235 48.0522 0.710479 47.772 0.641602C47.4918 0.641602 46.0208 0.641602 45.8808 0.641602C45.6005 0.641602 45.4605 0.779357 45.4605 1.05487C45.4605 1.33038 45.4605 5.18754 45.4605 5.87632C45.4605 6.90948 45.1102 7.04724 44.6899 7.11612C44.1996 7.25387 42.7286 7.18499 42.5185 7.18499C41.958 7.11612 41.5378 6.8406 41.5378 5.87632C41.5378 4.91203 41.5378 1.39926 41.5378 1.05487C41.5378 0.779357 41.3976 0.641602 41.1875 0.641602C40.9774 0.641602 39.5764 0.641602 39.2962 0.641602C38.9459 0.641602 38.876 0.848235 38.876 1.12375C38.876 1.74365 38.876 5.9452 38.946 6.63397C39.0861 8.28704 39.8566 8.97581 41.1875 9.11357C42.4484 9.25133 45.3904 9.25133 46.301 9.0447C47.772 8.70031 48.0522 7.46051 48.1223 6.01407C48.1223 5.18754 48.1223 1.53701 48.1223 1.12375Z" fill="white"/>
</g>
<defs>
<clipPath id="clip0">
<rect width="128.06" height="48.1504" fill="white" transform="translate(0.551758 0.642578)"/>
</clipPath>
</defs>
</svg>
