<svg width="77" height="25" viewBox="0 0 77 25" fill="none" xmlns="http://www.w3.org/2000/svg">
<path d="M47.9697 24.5808C57.5635 24.5808 64.0779 21.1065 64.0779 12.5786C64.0779 4.01131 57.5635 0.537007 47.9697 0.537007C38.3364 0.537007 31.8616 4.01131 31.8616 12.5786C31.8616 21.1065 38.3364 24.5808 47.9697 24.5808ZM47.9697 19.2785C41.6923 19.2785 38.2693 17.3953 38.2693 12.5786C38.2693 7.72251 41.6923 5.83927 47.9697 5.83927C54.2077 5.83927 57.6307 7.72251 57.6307 12.5786C57.6307 17.3953 54.2077 19.2785 47.9697 19.2785Z" fill="white"/>
<path d="M47.3151 11.1457H43.6795V11.7841H45.1168V14.105H45.8778V11.7841H47.3151V11.1457Z" fill="white"/>
<path d="M52.0971 11.1457H51.0699L49.8312 13.2341L48.5926 11.1457H47.5653V14.105H48.3262V12.0758L49.5564 14.105H50.106L51.3362 12.0758V14.105H52.0971V11.1457Z" fill="white"/>
<path d="M13.6019 16.6807V24.5808H19.7846V16.6807L33.3865 0.537007H25.9329L16.6933 11.4941L7.45357 0.537007H0L13.6019 16.6807Z" fill="white"/>
<path d="M70.7231 0L76.8788 1.08541L73.8294 17.579L67.9474 16.5418L70.7231 0ZM73.3289 20.4174L72.5209 25L66.673 23.9689L67.4811 19.3863L73.3289 20.4174Z" fill="white"/>
</svg>
